<svg xmlns="http://www.w3.org/2000/svg" xmlns:xlink="http://www.w3.org/1999/xlink" width="89.996" height="89.996" viewBox="0 0 89.996 89.996"><defs><style>.a{fill:url(#a);}.b{fill:#fff;}</style><linearGradient id="a" x1="-0.298" y1="1.35" x2="1.232" y2="-0.111" gradientUnits="objectBoundingBox"><stop offset="0" stop-color="#f39c2b"/><stop offset="1" stop-color="#ffd298"/></linearGradient></defs><g transform="translate(-460 -2426)"><circle class="a" cx="44.998" cy="44.998" r="44.998" transform="translate(460 2426)"/><path class="b" d="M12.069,33H6.785a1.6,1.6,0,0,1-1.6-1.6V19.479H2.1a1.6,1.6,0,0,1-1.6-1.6V12.771a1.6,1.6,0,0,1,1.6-1.6H5.184V8.612a8.709,8.709,0,0,1,2.3-6.239A8.294,8.294,0,0,1,13.6,0l4.03.007a1.6,1.6,0,0,1,1.6,1.6V6.349a1.6,1.6,0,0,1-1.6,1.6H14.916c-.828,0-1.038.166-1.083.217-.074.084-.163.323-.163.981V11.17h3.756a1.627,1.627,0,0,1,.792.2,1.606,1.606,0,0,1,.824,1.4l0,5.108a1.6,1.6,0,0,1-1.6,1.6H13.67V31.4a1.6,1.6,0,0,1-1.6,1.6ZM7.119,31.065h4.617V18.613A1.07,1.07,0,0,1,12.8,17.544h4.3l0-4.44H12.8a1.07,1.07,0,0,1-1.069-1.069V9.149a3.3,3.3,0,0,1,.647-2.261,3.279,3.279,0,0,1,2.533-.871H17.3V1.94l-3.7-.006c-4,0-6.482,2.559-6.482,6.678v3.424A1.07,1.07,0,0,1,6.05,13.1H2.435v4.44H6.05a1.07,1.07,0,0,1,1.069,1.069ZM17.629,1.941h0Zm0,0" transform="translate(495.5 2454)"/></g></svg>