<svg xmlns="http://www.w3.org/2000/svg" xmlns:xlink="http://www.w3.org/1999/xlink" width="89.996" height="89.996" viewBox="0 0 89.996 89.996"><defs><style>.a{fill:url(#a);}.b{fill:#fff;}</style><linearGradient id="a" x1="-0.298" y1="1.35" x2="1.232" y2="-0.111" gradientUnits="objectBoundingBox"><stop offset="0" stop-color="#f39c2b"/><stop offset="1" stop-color="#ffd298"/></linearGradient></defs><g transform="translate(-460 -2426)"><circle class="a" cx="44.998" cy="44.998" r="44.998" transform="translate(460 2426)"/><path class="b" d="M24.167,80.606h0c-5.245,0-10.956-.166-16.971-.49a7.175,7.175,0,0,1-6.7-6.664,88.984,88.984,0,0,1,0-18.694,7.216,7.216,0,0,1,6.7-6.662,257.476,257.476,0,0,1,31.746,0,7.143,7.143,0,0,1,6.7,6.658,89.191,89.191,0,0,1,0,18.7,7.152,7.152,0,0,1-6.69,6.665C34.384,80.441,29.413,80.606,24.167,80.606ZM22.941,49.377c-5.228,0-10.491.165-15.643.488a5.406,5.406,0,0,0-5.044,5.079,87.236,87.236,0,0,0,0,18.322,5.369,5.369,0,0,0,5.037,5.08c5.984.322,11.662.487,16.875.487s10.133-.164,14.65-.486a5.427,5.427,0,0,0,5.053-5.078,87.259,87.259,0,0,0,0-18.322,5.418,5.418,0,0,0-5.044-5.083C33.515,49.541,28.17,49.377,22.941,49.377Zm-4.39,8.454V69.989l11.676-6.038Z" transform="translate(482 2407.394)"/></g></svg>